<?xml version="1.0" encoding="utf-8"?>
<!-- Generator: Adobe Illustrator 24.1.2, SVG Export Plug-In . SVG Version: 6.00 Build 0)  -->
<svg version="1.1" id="Lag_1" xmlns="http://www.w3.org/2000/svg" xmlns:xlink="http://www.w3.org/1999/xlink" x="0px" y="0px"
	 viewBox="0 0 185 115" style="enable-background:new 0 0 185 115;" xml:space="preserve">
<style type="text/css">
	.st0{fill:#F6F6F6;}
	.st1{fill:#D5D3D2;}
</style>
<rect x="0.2" y="0.2" class="st0" width="185" height="115"/>
<path class="st1" d="M42.4,9.8h43.4c1,0,1.8,0.8,1.8,1.8v23.5c0,1-0.8,1.8-1.8,1.8H42.4c-1,0-1.8-0.8-1.8-1.8V11.6
	C40.5,10.6,41.3,9.8,42.4,9.8z"/>
<path class="st1" d="M97.1,9.8h43.4c1,0,1.8,0.8,1.8,1.8v23.5c0,1-0.8,1.8-1.8,1.8H97.1c-1,0-1.8-0.8-1.8-1.8V11.6
	C95.3,10.6,96.1,9.8,97.1,9.8z"/>
<rect x="40.5" y="43.7" class="st1" width="47.5" height="3.4"/>
<rect x="40.5" y="50.5" class="st1" width="37.3" height="3.4"/>
<rect x="94.8" y="43.7" class="st1" width="47.5" height="3.4"/>
<rect x="94.8" y="50.5" class="st1" width="37.3" height="3.4"/>
<path class="st1" d="M42.6,61.9H86c1,0,1.8,0.8,1.8,1.8v23.5c0,1-0.8,1.8-1.8,1.8H42.6c-1,0-1.8-0.8-1.8-1.8V63.7
	C40.8,62.7,41.6,61.9,42.6,61.9z"/>
<path class="st1" d="M97.3,61.9h43.4c1,0,1.8,0.8,1.8,1.8v23.5c0,1-0.8,1.8-1.8,1.8H97.3c-1,0-1.8-0.8-1.8-1.8V63.7
	C95.5,62.7,96.3,61.9,97.3,61.9z"/>
<rect x="40.8" y="95.8" class="st1" width="47.5" height="3.4"/>
<rect x="40.8" y="102.6" class="st1" width="37.3" height="3.4"/>
<rect x="95.1" y="95.8" class="st1" width="47.5" height="3.4"/>
<rect x="95.1" y="102.6" class="st1" width="37.3" height="3.4"/>
</svg>
