<?xml version="1.0" encoding="utf-8"?>
<!-- Generator: Adobe Illustrator 24.1.2, SVG Export Plug-In . SVG Version: 6.00 Build 0)  -->
<svg version="1.1" id="Lag_1" xmlns="http://www.w3.org/2000/svg" xmlns:xlink="http://www.w3.org/1999/xlink" x="0px" y="0px"
	 viewBox="0 0 185 115" style="enable-background:new 0 0 185 115;" xml:space="preserve">
<style type="text/css">
	.st0{fill:#F6F6F6;}
	.st1{fill:#D5D3D2;}
</style>
<rect x="0.2" y="0.2" class="st0" width="185" height="115"/>
<g>
	<path class="st1" d="M10.9,25.6h22.3c0.5,0,0.9,0.4,0.9,0.9v12.1c0,0.5-0.4,0.9-0.9,0.9H10.9c-0.5,0-0.9-0.4-0.9-0.9V26.6
		C10,26.1,10.4,25.6,10.9,25.6z"/>
	<rect x="10" y="43" class="st1" width="24.4" height="1.7"/>
	<rect x="10" y="46.5" class="st1" width="19.1" height="1.7"/>
	<path class="st1" d="M11.1,52.4h22.3c0.5,0,0.9,0.4,0.9,0.9v12.1c0,0.5-0.4,0.9-0.9,0.9H11.1c-0.5,0-0.9-0.4-0.9-0.9V53.3
		C10.1,52.8,10.5,52.4,11.1,52.4z"/>
	<rect x="10.1" y="69.8" class="st1" width="24.4" height="1.7"/>
	<rect x="10.1" y="73.2" class="st1" width="19.1" height="1.7"/>
</g>
<g>
	<path class="st1" d="M39.8,25.6h22.3c0.5,0,0.9,0.4,0.9,0.9v12.1c0,0.5-0.4,0.9-0.9,0.9H39.8c-0.5,0-0.9-0.4-0.9-0.9V26.6
		C38.9,26.1,39.3,25.6,39.8,25.6z"/>
	<rect x="38.7" y="43" class="st1" width="24.4" height="1.7"/>
	<rect x="38.7" y="46.5" class="st1" width="19.1" height="1.7"/>
	<path class="st1" d="M40,52.4h22.3c0.5,0,0.9,0.4,0.9,0.9v12.1c0,0.5-0.4,0.9-0.9,0.9H40c-0.5,0-0.9-0.4-0.9-0.9V53.3
		C39,52.8,39.4,52.4,40,52.4z"/>
	<rect x="38.8" y="69.8" class="st1" width="24.4" height="1.7"/>
	<rect x="38.8" y="73.2" class="st1" width="19.1" height="1.7"/>
</g>
<g>
	<path class="st1" d="M68.5,25.5h22.3c0.5,0,0.9,0.4,0.9,0.9v12.1c0,0.5-0.4,0.9-0.9,0.9H68.5c-0.5,0-0.9-0.4-0.9-0.9V26.4
		C67.6,25.9,68,25.5,68.5,25.5z"/>
	<rect x="67.3" y="42.9" class="st1" width="24.4" height="1.7"/>
	<rect x="67.3" y="46.4" class="st1" width="19.1" height="1.7"/>
	<path class="st1" d="M68.6,52.2h22.3c0.5,0,0.9,0.4,0.9,0.9v12.1c0,0.5-0.4,0.9-0.9,0.9H68.6c-0.5,0-0.9-0.4-0.9-0.9V53.1
		C67.7,52.6,68.1,52.2,68.6,52.2z"/>
	<rect x="67.5" y="69.6" class="st1" width="24.4" height="1.7"/>
	<rect x="67.5" y="73.1" class="st1" width="19.1" height="1.7"/>
</g>
<g>
	<path class="st1" d="M97.2,25.5h22.3c0.5,0,0.9,0.4,0.9,0.9v12.1c0,0.5-0.4,0.9-0.9,0.9H97.2c-0.5,0-0.9-0.4-0.9-0.9V26.4
		C96.3,25.9,96.7,25.5,97.2,25.5z"/>
	<rect x="96" y="42.9" class="st1" width="24.4" height="1.7"/>
	<rect x="96" y="46.4" class="st1" width="19.1" height="1.7"/>
	<path class="st1" d="M97.3,52.2h22.3c0.5,0,0.9,0.4,0.9,0.9v12.1c0,0.5-0.4,0.9-0.9,0.9H97.3c-0.5,0-0.9-0.4-0.9-0.9V53.1
		C96.4,52.6,96.8,52.2,97.3,52.2z"/>
	<rect x="96.1" y="69.6" class="st1" width="24.4" height="1.7"/>
	<rect x="96.1" y="73.1" class="st1" width="19.1" height="1.7"/>
</g>
<g>
	<path class="st1" d="M125.9,25.9h22.3c0.5,0,0.9,0.4,0.9,0.9v12.1c0,0.5-0.4,0.9-0.9,0.9h-22.3c-0.5,0-0.9-0.4-0.9-0.9V26.8
		C124.9,26.3,125.3,25.9,125.9,25.9z"/>
	<rect x="124.7" y="43.3" class="st1" width="24.4" height="1.7"/>
	<rect x="124.7" y="46.8" class="st1" width="19.1" height="1.7"/>
	<path class="st1" d="M126,52.6h22.3c0.5,0,0.9,0.4,0.9,0.9v12.1c0,0.5-0.4,0.9-0.9,0.9H126c-0.5,0-0.9-0.4-0.9-0.9V53.5
		C125.1,53,125.5,52.6,126,52.6z"/>
	<rect x="124.8" y="70" class="st1" width="24.4" height="1.7"/>
	<rect x="124.8" y="73.5" class="st1" width="19.1" height="1.7"/>
</g>
<g>
	<path class="st1" d="M154.5,25.6h22.3c0.5,0,0.9,0.4,0.9,0.9v12.1c0,0.5-0.4,0.9-0.9,0.9h-22.3c-0.5,0-0.9-0.4-0.9-0.9V26.6
		C153.6,26.1,154,25.6,154.5,25.6z"/>
	<rect x="153.4" y="43" class="st1" width="24.4" height="1.7"/>
	<rect x="153.4" y="46.5" class="st1" width="19.1" height="1.7"/>
	<path class="st1" d="M154.7,52.4h22.3c0.5,0,0.9,0.4,0.9,0.9v12.1c0,0.5-0.4,0.9-0.9,0.9h-22.3c-0.5,0-0.9-0.4-0.9-0.9V53.3
		C153.7,52.8,154.1,52.4,154.7,52.4z"/>
	<rect x="153.5" y="69.8" class="st1" width="24.4" height="1.7"/>
	<rect x="153.5" y="73.2" class="st1" width="19.1" height="1.7"/>
</g>
</svg>
