<?xml version="1.0" encoding="utf-8"?>
<!-- Generator: Adobe Illustrator 24.1.2, SVG Export Plug-In . SVG Version: 6.00 Build 0)  -->
<svg version="1.1" id="Lag_1" xmlns="http://www.w3.org/2000/svg" xmlns:xlink="http://www.w3.org/1999/xlink" x="0px" y="0px"
	 viewBox="0 0 185 115" style="enable-background:new 0 0 185 115;" xml:space="preserve">
<style type="text/css">
	.st0{fill:#F6F6F6;}
	.st1{fill:#D5D3D2;}
</style>
<rect x="0.2" y="0.2" class="st0" width="185" height="115"/>
<path class="st1" d="M12.6,19.3h33c0.8,0,1.4,0.6,1.4,1.4v17.9c0,0.8-0.6,1.4-1.4,1.4h-33c-0.8,0-1.4-0.6-1.4-1.4V20.6
	C11.2,19.9,11.8,19.3,12.6,19.3z"/>
<path class="st1" d="M54.3,19.3h33c0.8,0,1.4,0.6,1.4,1.4v17.9c0,0.8-0.6,1.4-1.4,1.4h-33c-0.8,0-1.4-0.6-1.4-1.4V20.6
	C52.9,19.9,53.5,19.3,54.3,19.3z"/>
<rect x="11.2" y="45.1" class="st1" width="36.2" height="2.6"/>
<rect x="11.2" y="50.2" class="st1" width="28.4" height="2.6"/>
<rect x="52.5" y="45.1" class="st1" width="36.2" height="2.6"/>
<rect x="52.5" y="50.2" class="st1" width="28.4" height="2.6"/>
<path class="st1" d="M12.8,58.9h33c0.8,0,1.4,0.6,1.4,1.4v17.9c0,0.8-0.6,1.4-1.4,1.4h-33c-0.8,0-1.4-0.6-1.4-1.4V60.3
	C11.4,59.5,12,58.9,12.8,58.9z"/>
<path class="st1" d="M54.5,58.9h33c0.8,0,1.4,0.6,1.4,1.4v17.9c0,0.8-0.6,1.4-1.4,1.4h-33c-0.8,0-1.4-0.6-1.4-1.4V60.3
	C53.1,59.5,53.7,58.9,54.5,58.9z"/>
<rect x="11.4" y="84.7" class="st1" width="36.2" height="2.6"/>
<rect x="11.4" y="89.9" class="st1" width="28.4" height="2.6"/>
<rect x="52.7" y="84.7" class="st1" width="36.2" height="2.6"/>
<rect x="52.7" y="89.9" class="st1" width="28.4" height="2.6"/>
<path class="st1" d="M96.7,19h33c0.8,0,1.4,0.6,1.4,1.4v17.9c0,0.8-0.6,1.4-1.4,1.4h-33c-0.8,0-1.4-0.6-1.4-1.4V20.4
	C95.3,19.6,95.9,19,96.7,19z"/>
<rect x="94.9" y="44.8" class="st1" width="36.2" height="2.6"/>
<rect x="94.9" y="50" class="st1" width="28.4" height="2.6"/>
<path class="st1" d="M96.8,58.7h33c0.8,0,1.4,0.6,1.4,1.4v17.9c0,0.8-0.6,1.4-1.4,1.4h-33c-0.8,0-1.4-0.6-1.4-1.4V60
	C95.4,59.3,96.1,58.7,96.8,58.7z"/>
<rect x="95.1" y="84.5" class="st1" width="36.2" height="2.6"/>
<rect x="95.1" y="89.6" class="st1" width="28.4" height="2.6"/>
<path class="st1" d="M139.3,19h33c0.8,0,1.4,0.6,1.4,1.4v17.9c0,0.8-0.6,1.4-1.4,1.4h-33c-0.8,0-1.4-0.6-1.4-1.4V20.4
	C137.9,19.6,138.5,19,139.3,19z"/>
<rect x="137.5" y="44.8" class="st1" width="36.2" height="2.6"/>
<rect x="137.5" y="50" class="st1" width="28.4" height="2.6"/>
<path class="st1" d="M139.4,58.7h33c0.8,0,1.4,0.6,1.4,1.4v17.9c0,0.8-0.6,1.4-1.4,1.4h-33c-0.8,0-1.4-0.6-1.4-1.4V60
	C138.1,59.3,138.7,58.7,139.4,58.7z"/>
<rect x="137.7" y="84.5" class="st1" width="36.2" height="2.6"/>
<rect x="137.7" y="89.6" class="st1" width="28.4" height="2.6"/>
</svg>
