<?xml version="1.0" encoding="utf-8"?>
<!-- Generator: Adobe Illustrator 24.1.2, SVG Export Plug-In . SVG Version: 6.00 Build 0)  -->
<svg version="1.1" id="Lag_1" xmlns="http://www.w3.org/2000/svg" xmlns:xlink="http://www.w3.org/1999/xlink" x="0px" y="0px"
	 viewBox="0 0 185 115" style="enable-background:new 0 0 185 115;" xml:space="preserve">
<style type="text/css">
	.st0{fill:#F6F6F6;}
	.st1{fill:#D5D3D2;}
</style>
<rect x="0.2" y="0.2" class="st0" width="185" height="115"/>
<g>
	<path class="st1" d="M11.1,25.7h26.8c0.6,0,1.1,0.5,1.1,1.1v14.5c0,0.6-0.5,1.1-1.1,1.1H11.1c-0.6,0-1.1-0.5-1.1-1.1V26.8
		C10,26.2,10.5,25.7,11.1,25.7z"/>
	<rect x="10" y="46.6" class="st1" width="29.3" height="2.1"/>
	<rect x="10" y="50.8" class="st1" width="23" height="2.1"/>
	<path class="st1" d="M11.3,57.8H38c0.6,0,1.1,0.5,1.1,1.1v14.5c0,0.6-0.5,1.1-1.1,1.1H11.3c-0.6,0-1.1-0.5-1.1-1.1V58.9
		C10.1,58.3,10.6,57.8,11.3,57.8z"/>
	<rect x="10.1" y="78.7" class="st1" width="29.3" height="2.1"/>
	<rect x="10.1" y="82.9" class="st1" width="23" height="2.1"/>
</g>
<g>
	<path class="st1" d="M45.6,25.7h26.8c0.6,0,1.1,0.5,1.1,1.1v14.5c0,0.6-0.5,1.1-1.1,1.1H45.6c-0.6,0-1.1-0.5-1.1-1.1V26.8
		C44.5,26.2,45,25.7,45.6,25.7z"/>
	<rect x="44.2" y="46.6" class="st1" width="29.3" height="2.1"/>
	<rect x="44.2" y="50.8" class="st1" width="23" height="2.1"/>
	<path class="st1" d="M45.8,57.8h26.8c0.6,0,1.1,0.5,1.1,1.1v14.5c0,0.6-0.5,1.1-1.1,1.1H45.8c-0.6,0-1.1-0.5-1.1-1.1V58.9
		C44.7,58.3,45.2,57.8,45.8,57.8z"/>
	<rect x="44.4" y="78.7" class="st1" width="29.3" height="2.1"/>
	<rect x="44.4" y="82.9" class="st1" width="23" height="2.1"/>
</g>
<g>
	<path class="st1" d="M79.9,25.5h26.8c0.6,0,1.1,0.5,1.1,1.1v14.5c0,0.6-0.5,1.1-1.1,1.1H79.9c-0.6,0-1.1-0.5-1.1-1.1V26.6
		C78.8,26,79.3,25.5,79.9,25.5z"/>
	<rect x="78.5" y="46.4" class="st1" width="29.3" height="2.1"/>
	<rect x="78.5" y="50.6" class="st1" width="23" height="2.1"/>
	<path class="st1" d="M80,57.6h26.8c0.6,0,1.1,0.5,1.1,1.1v14.5c0,0.6-0.5,1.1-1.1,1.1H80c-0.6,0-1.1-0.5-1.1-1.1V58.7
		C78.9,58.1,79.4,57.6,80,57.6z"/>
	<rect x="78.6" y="78.5" class="st1" width="29.3" height="2.1"/>
	<rect x="78.6" y="82.7" class="st1" width="23" height="2.1"/>
</g>
<g>
	<path class="st1" d="M114.1,25.5h26.8c0.6,0,1.1,0.5,1.1,1.1v14.5c0,0.6-0.5,1.1-1.1,1.1h-26.8c-0.6,0-1.1-0.5-1.1-1.1V26.6
		C113,26,113.5,25.5,114.1,25.5z"/>
	<rect x="112.7" y="46.4" class="st1" width="29.3" height="2.1"/>
	<rect x="112.7" y="50.6" class="st1" width="23" height="2.1"/>
	<path class="st1" d="M114.3,57.6H141c0.6,0,1.1,0.5,1.1,1.1v14.5c0,0.6-0.5,1.1-1.1,1.1h-26.8c-0.6,0-1.1-0.5-1.1-1.1V58.7
		C113.1,58.1,113.6,57.6,114.3,57.6z"/>
	<rect x="112.9" y="78.5" class="st1" width="29.3" height="2.1"/>
	<rect x="112.9" y="82.7" class="st1" width="23" height="2.1"/>
</g>
<g>
	<path class="st1" d="M148.4,26h26.8c0.6,0,1.1,0.5,1.1,1.1v14.5c0,0.6-0.5,1.1-1.1,1.1h-26.8c-0.6,0-1.1-0.5-1.1-1.1V27.1
		C147.2,26.5,147.7,26,148.4,26z"/>
	<rect x="147" y="46.9" class="st1" width="29.3" height="2.1"/>
	<rect x="147" y="51.1" class="st1" width="23" height="2.1"/>
	<path class="st1" d="M148.5,58.1h26.8c0.6,0,1.1,0.5,1.1,1.1v14.5c0,0.6-0.5,1.1-1.1,1.1h-26.8c-0.6,0-1.1-0.5-1.1-1.1V59.2
		C147.4,58.6,147.9,58.1,148.5,58.1z"/>
	<rect x="147.1" y="79" class="st1" width="29.3" height="2.1"/>
	<rect x="147.1" y="83.2" class="st1" width="23" height="2.1"/>
</g>
</svg>
