<?xml version="1.0" encoding="utf-8"?>
<!-- Generator: Adobe Illustrator 24.1.2, SVG Export Plug-In . SVG Version: 6.00 Build 0)  -->
<svg version="1.1" id="Lag_1" xmlns="http://www.w3.org/2000/svg" xmlns:xlink="http://www.w3.org/1999/xlink" x="0px" y="0px"
	 viewBox="0 0 185 115" style="enable-background:new 0 0 185 115;" xml:space="preserve">
<style type="text/css">
	.st0{fill:#F6F6F6;}
	.st1{fill:#D5D3D2;}
</style>
<rect x="0.2" y="0.2" class="st0" width="185" height="115"/>
<path class="st1" d="M17.4,9.8h43.4c1,0,1.8,0.8,1.8,1.8v23.5c0,1-0.8,1.8-1.8,1.8H17.4c-1,0-1.8-0.8-1.8-1.8V11.6
	C15.5,10.6,16.3,9.8,17.4,9.8z"/>
<path class="st1" d="M72.1,9.8h43.4c1,0,1.8,0.8,1.8,1.8v23.5c0,1-0.8,1.8-1.8,1.8H72.1c-1,0-1.8-0.8-1.8-1.8V11.6
	C70.3,10.6,71.1,9.8,72.1,9.8z"/>
<rect x="15.5" y="43.7" class="st1" width="47.5" height="3.4"/>
<rect x="15.5" y="50.5" class="st1" width="37.3" height="3.4"/>
<rect x="69.8" y="43.7" class="st1" width="47.5" height="3.4"/>
<rect x="69.8" y="50.5" class="st1" width="37.3" height="3.4"/>
<path class="st1" d="M17.6,61.9H61c1,0,1.8,0.8,1.8,1.8v23.5c0,1-0.8,1.8-1.8,1.8H17.6c-1,0-1.8-0.8-1.8-1.8V63.7
	C15.8,62.7,16.6,61.9,17.6,61.9z"/>
<path class="st1" d="M72.3,61.9h43.4c1,0,1.8,0.8,1.8,1.8v23.5c0,1-0.8,1.8-1.8,1.8H72.3c-1,0-1.8-0.8-1.8-1.8V63.7
	C70.5,62.7,71.3,61.9,72.3,61.9z"/>
<rect x="15.8" y="95.8" class="st1" width="47.5" height="3.4"/>
<rect x="15.8" y="102.6" class="st1" width="37.3" height="3.4"/>
<rect x="70.1" y="95.8" class="st1" width="47.5" height="3.4"/>
<rect x="70.1" y="102.6" class="st1" width="37.3" height="3.4"/>
<path class="st1" d="M127.8,9.5h43.4c1,0,1.8,0.8,1.8,1.8v23.5c0,1-0.8,1.8-1.8,1.8h-43.4c-1,0-1.8-0.8-1.8-1.8V11.3
	C126,10.3,126.8,9.5,127.8,9.5z"/>
<rect x="125.5" y="43.4" class="st1" width="47.5" height="3.4"/>
<rect x="125.5" y="50.2" class="st1" width="37.3" height="3.4"/>
<path class="st1" d="M128,61.6h43.4c1,0,1.8,0.8,1.8,1.8v23.5c0,1-0.8,1.8-1.8,1.8H128c-1,0-1.8-0.8-1.8-1.8V63.4
	C126.2,62.4,127,61.6,128,61.6z"/>
<rect x="125.8" y="95.5" class="st1" width="47.5" height="3.4"/>
<rect x="125.8" y="102.3" class="st1" width="37.3" height="3.4"/>
</svg>
